<svg xmlns="http://www.w3.org/2000/svg" width="81" height="81" viewBox="0 0 81 81">
    <g fill="none" fill-rule="evenodd">
        <path fill="#AC2318" d="M40.426 16.174c-13.39 0-24.25 10.86-24.25 24.253 0 13.399 10.86 24.258 24.25 24.258 13.402 0 24.262-10.86 24.262-24.258 0-13.394-10.86-24.253-24.262-24.253m40.18 24.253c0 22.191-17.988 40.178-40.18 40.178C18.242 80.605.254 62.618.254 40.427.254 18.242 18.242.254 40.426.254c22.192 0 40.18 17.988 40.18 40.173"/>
        <path fill="#441500" d="M63.064 40.426c0 12.501-10.132 22.635-22.637 22.635-12.492 0-22.623-10.134-22.623-22.635 0-12.494 10.131-22.626 22.623-22.626 12.505 0 22.637 10.132 22.637 22.626"/>
        <path fill="#FEFEFE" d="M44.042 54.602c.963 0 3.646-1.43 2.651-2.086-.629-.412-1.367-.964-2.73-2.007-.611-.467-.879-.34-1.067-.34-.562 0 .35-.909.05-1.641-.333-.798-.522-2.022-.801-2.3-.282-.282-.167-1.76.422-2.349.644-.643 1.567-2.514 2.076-3.23.605-.856 1.02-2.735.781-2.977-.243-.24-1.343-2.522-1.822-3.003-.312-.31-.82-1.074-1.332-1.694l-.12-.171-.518.294c-.517.299-1.156.91-1.156.91s-.445.148-1.475-.059c-.555-.11-.755-.501-.755-.945 0-.443-.29-.331-.29-.331s-5.198.252-5.58.472c-.378.22-2.04 2.497-2.04 2.497s-.883 8.653-.201 9.338c.815.812 5.063 7.505 5.858 8.304.79 1.082 7.086 1.318 8.049 1.318M34.009 35.447c-.536.096-1.403-.056-1.81.686l-.775 3.364s.083 3.378.158 4.049c.072.667.944 2.845 1.43 3.335.43.43 1.267 1.853 2.025 2.603.205.201.621.298.796.534.315.426.118.133-.447-.703-2.077-3.077-2.525-5.732-2.626-6.186-.222-.99-.059-3.315 0-4.247.03-.493.372-1.6.698-1.847.152-.118 1.577-.276 1.864-.357.445-.13 1.076-.122 1.484-.206 1.305-.269 3.705.399 3.868.476 1.954.904 1.195 1.219 1.225 1.325.03.11-2.72 5.65-2.708 5.91.013.282.113 3.053.372 3.81.077.224.945 2.32 1.101 2.7.688 1.665-1.479-.277-1.619-.353-.14-.079-2.999-4.99-3.412-6.033-.279-.701-.177-1.758-.122-1.982.075-.308-.147-2.68.294-3.004.3-.22 1.637-.355 2.283-.072.587.258.903.917.842 1.072-.047.131-.975 3.126-1.12 2.875-.046-.082-.05-1.03-.172-1.124-.124-.097-.806-.239-.89-.13-.084.112-.248 1.117-.162 1.462.413 1.664 1.376 1.146 1.558.835.27-.461 1.578-4.14 1.554-4.378-.055-.541-.455-1.474-1.304-1.76-.509-.17-2.722-.075-3.331.243-.935.491-.88 4.744-.702 5.363.178.615 3.124 5.561 3.262 5.941.273.741 2.056 2.503 2.335 2.669.116.07 2.55 1.015 2.865.541.137-.206.069-.78-.539-1.177-.58-.38-1.966-4.423-1.962-4.74.006-.3-.36-2.55-.117-3.018.46-.894 3.774-5.86 3.411-6.26-.486-.537-1.973-3.044-2.67-2.1-.629.855-3.608-.025-4.35-.568-.055-.042-1.812.309-2.587.452m14.509-11.671c.295.035 1.6.493 1.6.493s1.26 1.842 1.581 2.238c.324.395.18.682.18.682l-.618 2.258s.225.184 0 0c-.227-.183-1.895-.033-2.291.005-.398.034.36-.469.54-.648.18-.18.899-.683.806-.97-.086-.289-1.171-2.387-1.171-2.387s-1.894-.018-2.793.09c-.899.107-2.788 1.987-2.788 1.987l-.688 2.718s.278.5.674.824c.395.324 1.545.215 1.975.18.43-.035.253.467-.107.79s-1.653.323-1.653.323l.537.18c.596.54 1.686 3.302 2.329 3.947.642.64-.02 3.88-.942 4.802-.925.919-1.365 2.905-1.927 3.467-.565.563-1.148.343-.565.924.586.58.313 1.281.405 1.794.06.329.153.929.438 1.21.277.28 4.538 3.233 6.25 3.368.312.026.316 1.529-1.439 3.376 0 0-.313 1.066-3.24 1.16-3.193.1-6.334-.433-7.057-.433-.72 0-2.819-1.193-2.819-1.193-.399 0-7.064-9.273-7.064-9.913 0-.643-.474-2.377-.474-3.02 0-.64.743-6.513.624-7.224-.094-.558.197-.688.84-1.331.641-.64 1.8-1.728 2.239-2.169.198-.197 1.735-.154 3.597-.552l.289-.123-.37-.18s-.6-.753-1.568-.717c-.969.035-1.294.108-.79-.107.503-.215 1.406-.897 1.406-.897l2.112.933h1.597l2-1.647 4.538-3.686 3.807-.552M72.662 39.908a.916.916 0 1 0-.038 1.832.916.916 0 0 0 .038-1.832zM7.942 26.622c.376-.87 1.037-1.412 1.842-1.796a.265.265 0 0 0 .121-.353l-.462-.96a.262.262 0 0 0-.35-.12c-.999.473-1.895 1.206-2.512 2.624-1.114 2.561.07 5.214 2.483 6.266l-.048-.02c2.413 1.049 5.16.107 6.273-2.454.62-1.418.547-2.572.216-3.628a.27.27 0 0 0-.33-.173l-1.02.317a.265.265 0 0 0-.172.33c.266.849.32 1.702-.058 2.571-.707 1.62-2.543 2.213-4.207 1.487-1.668-.723-2.484-2.47-1.776-4.09zm24.4-16.93a.262.262 0 0 1-.309-.203l-.556-2.736a.266.266 0 0 1 .208-.311l1.583-.321c1.188-.24 2.06.16 2.278 1.231.197.967-.418 1.775-1.618 2.02l-1.585.32zm5.254-2.707c-.373-1.842-2.388-2.76-4.49-2.333l-3.302.67a.263.263 0 0 0-.206.308l1.728 8.513c.026.14.166.236.307.206l1.073-.217a.266.266 0 0 0 .206-.312l-.485-2.386a.266.266 0 0 1 .206-.31l1.534-.31c1.987-.404 3.842-1.789 3.429-3.829zm37.212 24.07a.262.262 0 0 1-.338-.153l-1.647-4.386a.26.26 0 0 0-.337-.156l-2.292.86a.266.266 0 0 0-.154.34l1.235 3.29a.265.265 0 0 1-.154.339l-.865.322a.262.262 0 0 1-.337-.153l-1.234-3.29a.265.265 0 0 0-.337-.155l-1.283.481a.262.262 0 0 0-.155.34l1.668 4.448a.26.26 0 0 1-.154.339l-.862.324a.262.262 0 0 1-.337-.155l-2.24-5.964a.266.266 0 0 1 .155-.338l8.13-3.051a.266.266 0 0 1 .341.153l2.217 5.904a.266.266 0 0 1-.156.336l-.864.324zm-8.445-16.32a.261.261 0 0 1 .368.027l.714.83a.264.264 0 0 1-.029.37l-5.466 4.702a.26.26 0 0 0-.032.37l2.817 3.273c.092.11.08.277-.027.373l-.719.616a.269.269 0 0 1-.374-.026l-3.87-4.504a.263.263 0 0 1 .028-.369l6.59-5.662zM55.4 17.138a.263.263 0 0 1-.361.092l-.95-.565a.265.265 0 0 1-.09-.361l3.68-6.174a.266.266 0 0 0-.091-.36l-2.057-1.227a.261.261 0 0 1-.091-.358l.496-.837a.268.268 0 0 1 .364-.093l5.966 3.561a.263.263 0 0 1 .094.36l-.5.837a.264.264 0 0 1-.36.09l-2.058-1.228a.265.265 0 0 0-.362.093l-3.68 6.17zM46.718 5.78c-1.803-.317-3.317.901-3.63 2.676-.31 1.776.717 3.464 2.52 3.78 1.804.318 3.31-.902 3.622-2.676.31-1.774-.716-3.465-2.512-3.78zm-1.392 7.917c-2.79-.488-4.363-2.942-3.913-5.509.449-2.566 2.799-4.36 5.588-3.87 2.781.489 4.356 2.94 3.905 5.51-.45 2.567-2.794 4.358-5.58 3.869zM23.69 7.686a.263.263 0 0 1 .354.112l4.02 7.699a.266.266 0 0 1-.112.355l-.967.504a.264.264 0 0 1-.355-.109l-4.02-7.7a.264.264 0 0 1 .113-.355l.967-.506zm-6.914 13.02c-.1.103-.1.269.004.37l1.988 1.94a.264.264 0 0 1 .004.37l-.765.784a.26.26 0 0 1-.37.004l-6.215-6.07a.266.266 0 0 1-.004-.372l.764-.78a.262.262 0 0 1 .371-.006l2.778 2.715c.102.1.27.1.372-.004l2.975-3.047a.264.264 0 0 0-.003-.371l-2.779-2.715a.264.264 0 0 1-.004-.371l.763-.781a.266.266 0 0 1 .373-.005l6.212 6.071c.104.1.105.266.005.371l-.763.782a.268.268 0 0 1-.374.004l-1.986-1.94a.262.262 0 0 0-.37.005l-2.976 3.046zM8.759 53.88l3.13-1.167-2.551-.587-.011-.027 1.53-2.092-3.11 1.159-.386-1.033 4.793-1.788.424 1.139-1.557 2.013 2.498.505.424 1.138-4.793 1.788-.39-1.048zm64.138-.714l-4.838-1.652.362-1.065 3.872 1.323.825-2.412.965.328-1.186 3.478zm-3.342 6.402l-4.39-2.619.575-.964 3.513 2.093 1.305-2.186.88.521-1.883 3.155zm-3.102 3.953l-3.864-3.35.738-.848 3.86 3.35-.734.848zm-5.56.74c-.299-.376-.718-.362-1.147-.024l-.875.697.907 1.149.895-.707c.431-.336.498-.762.227-1.1l-.007-.015zm2.073 2.658l-1.876-.604-.695.546 1.016 1.284-.881.7-3.173-4.011 1.831-1.451c.949-.749 1.91-.698 2.563.128l.008.01c.512.647.487 1.332.125 1.924l2.11.66-1.028.814zm-7.663 4.976c-1.447.665-2.912.103-3.544-1.273l-.005-.012c-.608-1.32-.073-2.878 1.336-3.521.836-.384 1.443-.39 2.119-.2l-.287 1.071c-.496-.134-.895-.16-1.432.085-.745.342-1.035 1.273-.672 2.06l.006.014c.392.85 1.263 1.208 2.084.83.374-.171.661-.418.837-.722l-.305-.666-1.03.475-.404-.885 2.014-.927.93 2.021a3.33 3.33 0 0 1-1.647 1.65zm-8.997 2.708l-2.86-2.919.402 3.227-1.105.136-.633-5.072 1.032-.128 2.769 2.824-.39-3.12 1.104-.139.63 5.073-.949.118zm-9.396-3.601l-.876 1.567 1.351.163-.475-1.73zm1.08 3.961l-.326-1.192-2.148-.264-.603 1.084-1.139-.138 2.798-4.852 1.03.122 1.555 5.381-1.167-.141zm-9.365-1.994c-1.407-.54-2.038-2.019-1.515-3.393l.004-.015c.52-1.359 1.965-2.08 3.435-1.52.9.342 1.325.85 1.602 1.455l-.961.518c-.241-.476-.54-.826-1.018-1.008-.806-.308-1.641.14-1.952.963l-.005.013c-.313.818-.007 1.718.813 2.032.545.207.965.117 1.47-.083l.41.932c-.692.336-1.361.456-2.283.106zm-6.632-3.409l2.691-4.341.956.591-2.693 4.343-.954-.593zm-3.896-2.892l.343-2.065-2.038.51-.94-.866 3.072-.71.44-3.004.968.887-.33 1.952 1.919-.492.939.865-2.949.684-.457 3.13-.967-.891zm-7.01-8.209l4.222-2.89 2.18 3.18-.825.569-1.55-2.261-.857.587 1.365 1.99-.825.566-1.365-1.989-.886.607 1.57 2.289-.825.569-2.204-3.217zM7.301 40.843c.011.503.43.905.935.895a.915.915 0 1 0-.037-1.83.917.917 0 0 0-.898.935z"/>
    </g>
</svg>
